<?xml version="1.0" standalone="no"?>
<!DOCTYPE svg PUBLIC "-//W3C//DTD SVG 20010904//EN"
 "http://www.w3.org/TR/2001/REC-SVG-20010904/DTD/svg10.dtd">
<svg version="1.0" xmlns="http://www.w3.org/2000/svg"
 width="800.000000pt" height="693.000000pt" viewBox="0 0 800.000000 693.000000"
 preserveAspectRatio="xMidYMid meet">
<metadata>
Created by potrace 1.16, written by Peter Selinger 2001-2019
</metadata>
<g transform="translate(0.000000,693.000000) scale(0.100000,-0.100000)"
fill="#000000" stroke="none">
<path d="M0 3465 l0 -3465 4000 0 4000 0 0 3465 0 3465 -4000 0 -4000 0 0
-3465z m4939 2265 c28 -22 85 -75 126 -118 236 -242 387 -578 409 -912 6 -86
3 -96 -9 -27 -3 21 -10 35 -16 32 -5 -4 -9 -2 -9 4 0 16 -55 92 -109 151 -28
30 -51 57 -52 60 -1 7 -189 168 -232 198 -17 13 -43 31 -56 40 -13 9 -44 33
-70 52 -53 41 -106 56 -251 70 -347 33 -386 32 -397 -10 -3 -11 -12 -20 -19
-20 -8 0 -14 -4 -14 -8 0 -5 -18 -15 -40 -22 -22 -7 -40 -17 -40 -22 0 -4 -7
-8 -15 -8 -8 0 -15 -4 -15 -9 0 -5 -10 -13 -22 -17 -13 -4 -52 -28 -88 -53
l-65 -46 -105 -1 c-113 0 -143 3 -134 17 3 5 -1 7 -8 4 -7 -2 -30 -6 -51 -9
-20 -3 -45 -10 -55 -15 -15 -8 -134 -29 -202 -35 -29 -3 -78 -24 -102 -44 -9
-7 -27 -12 -40 -9 -21 4 -20 4 5 6 30 1 37 17 10 24 -10 2 -5 3 10 1 19 -3 26
0 21 8 -4 6 1 17 11 24 14 11 16 18 8 36 -7 17 -4 30 16 60 13 21 30 38 37 38
6 0 17 7 24 15 7 9 19 14 27 11 8 -3 11 -1 8 4 -6 9 10 14 42 13 7 -1 11 3 8
7 -3 4 17 13 42 20 26 6 53 16 59 21 18 14 118 21 148 9 20 -7 25 -7 20 1 -5
9 1 10 20 5 18 -4 25 -3 21 4 -8 13 -3 13 31 0 22 -9 25 -8 16 2 -8 10 -1 13
34 14 40 1 43 0 27 -13 -16 -13 -16 -13 4 -3 12 5 25 14 28 20 3 5 12 7 20 3
9 -3 15 1 15 11 0 9 7 16 16 16 10 0 14 5 10 16 -3 8 -2 12 4 9 6 -3 10 1 10
9 0 8 5 18 12 22 8 5 9 0 6 -14 -4 -12 -2 -20 3 -16 5 3 9 16 9 30 0 14 -4 22
-10 19 -5 -3 -16 -3 -22 2 -11 7 63 21 125 24 9 0 17 4 17 8 0 13 -58 22 -101
15 -39 -7 -75 9 -64 27 3 4 -3 13 -14 19 -12 6 -22 6 -26 1 -3 -5 0 -11 7 -14
9 -2 8 -4 -1 -3 -32 2 -19 26 28 53 28 15 51 31 51 35 0 12 -48 21 -74 14 -14
-3 -27 -15 -31 -26 -3 -11 -26 -28 -50 -39 -45 -20 -65 -52 -45 -76 9 -11 7
-12 -11 -8 -18 5 -21 3 -16 -10 3 -9 1 -19 -5 -23 -7 -4 -8 -3 -4 4 14 23 -11
12 -30 -12 -10 -14 -21 -23 -26 -20 -4 3 -13 2 -20 -2 -8 -5 -6 -10 8 -15 16
-7 17 -8 2 -8 -10 -1 -29 17 -44 40 -14 23 -29 37 -33 31 -3 -5 -15 -12 -26
-14 -15 -2 -19 2 -18 17 1 11 3 32 5 47 1 19 10 31 28 38 28 11 92 49 100 59
12 15 53 45 46 33 -6 -10 -2 -10 18 -1 14 7 23 17 19 23 -3 6 -3 8 2 4 4 -4
32 6 62 23 31 18 53 25 53 19 0 -10 3 -10 14 -1 8 7 39 15 68 18 29 3 55 7 57
9 2 2 9 0 15 -5 6 -6 30 -12 53 -15 40 -4 120 -41 134 -60 4 -5 11 -6 17 -2 6
3 14 1 18 -5 7 -11 -33 -9 -116 7 l-25 5 27 -15 c15 -9 29 -24 33 -35 3 -11
19 -21 37 -25 45 -9 60 -7 52 5 -4 8 0 9 15 4 26 -8 49 4 30 16 -18 11 32 30
60 22 12 -3 21 -1 21 4 0 5 11 10 25 11 14 1 36 9 49 17 13 9 39 16 57 16 83
-1 134 5 132 16 -2 12 65 0 98 -17 33 -18 33 -10 -1 23 -34 34 -48 66 -26 63
15 -2 116 -103 116 -116 0 -5 -7 -10 -16 -10 -8 0 -12 -4 -9 -10 3 -5 15 -10
27 -10 18 0 20 4 14 32 l-6 32 25 -24 c14 -13 25 -18 25 -12 0 14 -40 42 -60
42 -9 0 -27 15 -40 33 -13 18 -16 26 -7 18 9 -7 24 -10 33 -7 10 4 25 -1 35
-10 11 -10 19 -13 19 -8 0 5 -16 20 -36 34 -20 13 -31 26 -25 28 9 3 9 7 0 18
-23 28 10 14 60 -26z m-1655 -915 c-18 -15 -17 -16 16 -10 26 5 31 4 20 -4
-13 -9 -12 -11 3 -11 10 0 16 -4 13 -8 -2 -4 13 -9 34 -9 45 -2 100 -38 100
-65 0 -10 -5 -18 -12 -18 -6 0 -40 -19 -75 -42 l-63 -43 6 -101 c8 -121 3
-146 -37 -185 -22 -22 -40 -29 -72 -30 -81 -3 -120 3 -141 22 -11 11 -26 17
-33 15 -8 -3 -10 1 -6 11 4 11 3 14 -6 9 -6 -4 -11 -4 -10 1 1 4 -3 21 -9 36
-14 34 -16 106 -3 140 6 14 24 39 41 57 17 17 28 35 26 39 -3 4 20 34 50 66
39 41 54 64 50 77 -3 14 0 18 10 14 10 -4 12 -2 8 6 -5 8 -2 9 10 5 10 -4 27
0 39 8 15 11 17 15 7 16 -8 1 -4 5 10 9 39 13 45 11 24 -5z m-728 -1431 c-41
-41 -21 -114 31 -114 38 0 63 27 63 67 0 18 5 33 11 33 8 0 10 -16 6 -49 -7
-57 -1 -68 25 -44 17 16 18 12 18 -104 0 -131 -7 -186 -22 -177 -6 4 -7 -2 -3
-17 l7 -24 -19 22 c-13 15 -26 20 -41 16 -12 -3 -37 2 -56 11 -19 9 -42 16
-53 17 -15 0 -14 2 5 9 32 14 44 55 39 137 -4 55 -2 70 8 67 7 -3 28 2 46 10
20 9 23 13 9 9 -65 -18 -111 11 -113 71 -1 34 24 76 45 76 5 0 2 -7 -6 -16z
m247 -46 c-1 -35 0 -57 3 -50 3 6 10 10 15 6 5 -3 9 3 10 13 1 40 10 69 26 83
14 14 15 13 8 -5 -9 -24 -9 -28 -5 -80 1 -22 4 -32 7 -22 2 9 11 17 20 17 10
0 13 -6 9 -17 -6 -15 -4 -15 14 2 11 10 23 15 28 10 4 -4 1 -10 -5 -12 -10 -3
-13 -42 -14 -141 -1 -76 -5 -121 -8 -102 -6 33 -7 34 -13 10 -4 -14 -15 -26
-25 -27 -37 -3 -78 -16 -85 -27 -12 -18 -9 363 2 385 6 10 12 19 13 19 1 0 1
-28 0 -62z m737 -12 l0 -40 17 24 17 24 12 -30 12 -29 6 35 c3 19 7 46 9 60 3
14 4 -67 4 -180 1 -113 -3 -192 -7 -175 -4 17 -8 22 -9 12 -1 -16 -9 -18 -61
-16 l-60 2 0 135 0 134 -24 -6 c-15 -4 -28 -1 -32 6 -5 8 -2 9 10 5 14 -6 17
-3 12 9 -6 15 -4 15 10 3 16 -13 17 -10 11 36 -6 46 -5 48 8 31 8 -11 15 -35
15 -54 0 -30 2 -33 16 -21 11 9 15 26 12 61 -2 41 -1 46 10 31 6 -9 12 -35 12
-57z m229 43 c6 -18 12 -55 13 -83 1 -50 1 -50 7 -11 l5 40 6 -50 c6 -47 7
-45 8 26 1 42 7 83 15 92 10 14 13 -18 15 -171 2 -140 0 -184 -8 -176 -9 9
-18 8 -38 -2 -14 -7 -29 -11 -34 -8 -4 3 -8 0 -8 -5 0 -15 -30 -14 -31 2 -1 6
-5 1 -9 -13 -5 -14 -8 51 -8 155 0 104 3 169 8 155 4 -14 8 -18 9 -10 1 11 4
11 13 2 7 -7 16 -12 20 -12 15 0 8 68 -8 84 -13 14 -13 16 -1 16 8 0 20 -14
26 -31z m611 -19 c0 -53 10 -61 38 -34 15 15 16 15 22 -2 7 -17 8 -17 14 3 7
21 50 42 62 30 23 -23 36 -357 14 -357 -5 0 -10 4 -10 8 0 4 -8 8 -17 9 -10 0
-37 2 -60 4 l-43 3 0 133 c0 109 2 131 14 127 8 -3 16 -1 19 3 5 8 -16 9 -60
4 -6 0 -16 -16 -23 -33 -11 -32 -12 -32 -26 -14 -9 13 -14 44 -14 90 0 38 2
67 4 65 4 -4 15 -80 15 -111 1 -10 5 -18 11 -18 5 0 6 7 3 17 -4 11 -3 14 5 9
9 -5 12 10 12 53 0 34 4 61 10 61 6 0 10 -22 10 -50z m289 43 c-1 -5 0 -37 1
-73 2 -52 4 -58 9 -30 7 43 28 50 37 12 11 -49 12 -48 13 10 1 31 4 63 7 72
12 31 19 15 16 -34 -3 -39 -1 -50 11 -50 9 0 17 14 20 36 6 39 23 64 41 64 8
0 8 -2 -1 -8 -12 -8 -16 -24 -14 -66 1 -24 3 -27 16 -16 12 10 15 10 15 -1 0
-12 2 -12 9 -1 7 11 9 11 14 -2 5 -12 -5 -16 -51 -18 l-57 -3 3 -35 c2 -19 5
-36 7 -38 1 -1 86 -2 189 -2 l186 0 0 -50 0 -50 -190 0 -190 0 0 -45 c0 -36 4
-45 18 -46 9 0 55 0 102 1 78 1 83 0 59 -13 -44 -24 -124 -39 -218 -40 -83 -2
-91 -4 -93 -22 -1 -11 -4 43 -7 120 -5 113 2 312 7 242 4 -40 22 -3 22 44 0
27 5 49 10 49 6 0 9 -3 9 -7z m589 -10 c-26 -30 -28 -61 -6 -88 23 -30 42 -31
74 -6 24 19 48 21 93 6 16 -5 21 -4 17 4 -5 7 2 11 16 11 19 0 20 -2 8 -11
-12 -8 -10 -9 10 -5 71 16 76 17 55 7 -15 -8 0 -10 57 -9 42 1 80 -1 83 -4 3
-3 -59 -6 -139 -6 -100 -1 -146 3 -146 10 0 6 -3 8 -6 5 -4 -4 -8 -38 -10 -77
l-3 -70 154 0 c172 0 181 3 172 67 -7 59 -16 86 -29 94 -11 7 49 3 94 -6 9 -1
19 2 22 9 2 6 5 4 5 -6 1 -17 16 -19 39 -5 9 6 12 -10 12 -70 0 -88 -13 -116
-57 -128 l-28 -7 32 -13 c39 -16 53 -42 52 -92 0 -34 -1 -36 -10 -14 -7 18
-12 21 -22 12 -10 -8 -19 -6 -35 5 -20 14 -22 14 -23 -3 -1 -16 -2 -16 -6 1
-4 15 -7 16 -14 5 -6 -10 -9 -10 -9 -2 0 7 -6 10 -14 7 -7 -3 -16 2 -19 10 -5
13 -28 16 -129 18 l-123 2 105 6 105 6 -122 2 c-86 1 -123 -1 -123 -9 0 -8 -4
-8 -13 -1 -10 8 -21 6 -43 -7 -42 -26 -94 -32 -95 -12 -1 9 -5 0 -9 -19 -4
-20 -8 50 -9 164 -1 173 1 202 16 218 21 23 41 24 21 1z m-1901 -23 c-16 -41
6 -81 51 -94 31 -9 40 -34 10 -28 -8 1 -15 -4 -15 -13 0 -8 4 -12 9 -9 5 3
-13 -39 -41 -93 -32 -65 -55 -100 -66 -100 -9 0 -14 6 -11 13 3 8 0 11 -10 7
-7 -3 -14 -9 -14 -15 0 -5 -4 -7 -10 -3 -5 3 -7 12 -4 20 5 13 3 13 -22 0 -16
-8 -31 -11 -34 -7 -3 4 -13 13 -23 21 -15 12 -17 12 -11 -4 6 -14 3 -16 -14
-10 -14 4 -22 2 -22 -6 0 -9 -3 -9 -14 0 -11 10 -16 9 -23 -4 -8 -14 -11 -12
-21 10 -7 15 -9 31 -6 37 4 7 2 8 -4 4 -12 -7 -108 182 -97 192 3 3 5 0 5 -6
0 -15 59 -82 73 -82 6 0 1 7 -11 16 -12 8 -29 28 -37 44 -17 33 -20 116 -5
125 6 3 7 -1 4 -9 -7 -17 14 -116 24 -117 32 -3 94 -27 74 -28 -7 -1 -22 4
-33 9 -12 7 -19 7 -19 1 0 -9 29 -16 89 -24 31 -4 22 -27 -11 -29 l-33 -1 32
-4 c34 -4 60 -34 47 -55 -4 -6 -3 -8 3 -5 6 4 14 0 17 -9 4 -10 2 -13 -7 -8
-6 4 -4 -1 5 -11 10 -11 19 -17 21 -14 9 10 87 187 87 196 0 6 6 16 14 22 12
10 14 9 10 -6 -3 -11 5 -28 20 -42 26 -24 37 -17 14 8 -11 11 -9 11 10 1 13
-6 26 -9 29 -7 2 3 -5 8 -16 12 -12 3 -21 11 -21 16 0 6 -4 8 -8 5 -13 -8 -6
82 8 99 18 22 20 19 7 -15z m563 -73 c3 -45 10 -82 15 -82 6 0 11 33 13 73 3
86 22 97 22 13 0 -46 4 -60 17 -65 10 -4 20 -1 25 9 5 8 12 15 16 15 8 0 34
-63 32 -75 0 -3 7 -13 15 -22 9 -9 14 -24 12 -35 -3 -10 -1 -15 5 -12 5 3 12
-3 15 -15 8 -33 17 -25 42 39 13 33 28 57 34 53 6 -3 7 -1 3 5 -4 6 2 28 13
49 11 21 20 34 21 28 0 -13 60 -17 60 -4 0 6 12 -3 26 -20 l25 -31 -36 -75
c-20 -41 -40 -73 -45 -70 -4 3 -7 -3 -6 -13 1 -21 -43 -29 -73 -12 -18 9 -20
8 -14 -7 6 -16 5 -16 -9 -5 -18 15 -101 20 -133 8 -17 -6 -25 2 -53 60 -27 53
-31 69 -20 76 10 8 9 9 -4 5 -25 -8 -40 39 -41 132 -3 106 15 89 23 -22z
m2685 -8 c6 2 22 12 38 23 15 11 27 15 27 9 0 -5 12 -9 27 -8 26 2 27 0 24
-45 l-3 -48 106 0 c88 0 106 -3 106 -15 0 -8 7 -15 15 -15 18 0 19 -12 3 -28
-9 -9 -9 -12 3 -13 9 0 6 -4 -6 -9 -19 -8 -18 -9 5 -11 14 -2 -31 -6 -100 -9
l-125 -5 0 -44 0 -44 78 2 c81 2 96 -6 50 -29 -38 -19 -253 -25 -254 -7 -1 6
-5 1 -9 -13 -5 -14 -8 59 -8 170 0 107 3 182 7 165 3 -16 11 -28 16 -26z
m-644 -4 c25 -4 39 -12 39 -22 0 -8 7 -21 15 -29 10 -10 15 -35 15 -73 0 -32
2 -74 5 -92 4 -27 3 -29 -3 -9 -7 22 -9 23 -15 7 -4 -11 -4 -24 0 -30 4 -6 0
-8 -10 -4 -8 3 -21 -1 -27 -9 -10 -11 -10 -14 -1 -14 7 0 9 -5 5 -12 -6 -9 -9
-9 -12 0 -2 7 -10 12 -18 12 -8 0 -11 -6 -7 -16 5 -14 3 -15 -16 -4 -21 11
-22 10 -11 -9 6 -12 8 -21 5 -21 -3 0 -13 16 -21 35 -15 36 -20 266 -7 315 6
24 6 24 16 3 6 -15 22 -24 48 -28z m-3895 -39 c-3 17 0 20 17 16 11 -3 28 -12
38 -21 44 -40 47 -41 52 -23 3 9 5 -18 6 -61 0 -43 6 -88 11 -100 l11 -22 -17
22 -16 22 -44 -33 c-61 -46 -78 -42 -82 20 -6 84 -6 117 -3 179 l3 60 14 -40
c7 -22 12 -30 10 -19z m-655 -26 c28 0 49 -5 49 -11 0 -5 4 -8 9 -4 9 5 16
-22 23 -85 4 -30 -44 -87 -76 -92 -15 -2 -20 -9 -18 -23 l4 -20 -16 20 -15 20
-2 -20 c-4 -56 -17 52 -17 145 0 58 2 97 5 88 3 -14 15 -18 54 -18z m-174 -24
c-4 -9 2 -12 23 -10 28 3 29 2 36 -52 3 -30 3 -58 -1 -62 -8 -8 -355 -10 -355
-1 0 3 10 16 21 28 l22 23 -22 -7 c-12 -4 -21 -2 -21 4 0 6 3 10 8 10 4 -1 58
-1 119 0 l113 1 -10 26 c-14 36 -13 37 15 30 18 -5 27 -2 31 9 4 8 11 15 16
15 6 0 8 -6 5 -14z"/>
</g>
</svg>
